<?xml version="1.0" standalone="no"?>
<svg viewBox="0 0 200 200" xmlns="http://www.w3.org/2000/svg">
  <path fill="#E1B511" d="M39.6,-68.4C48.8,-63.2,52.1,-47.6,55.3,-34.4C58.6,-21.3,61.8,-10.6,63.5,1C65.2,12.6,65.3,25.2,60.4,35.5C55.5,45.8,45.6,53.8,34.7,63.4C23.8,73,11.9,84,-1.2,86.2C-14.4,88.4,-28.8,81.6,-41.6,73.1C-54.5,64.7,-65.8,54.6,-71,42.2C-76.3,29.7,-75.4,14.8,-74.2,0.7C-73,-13.4,-71.4,-26.9,-64.9,-37.1C-58.4,-47.4,-46.9,-54.4,-35.3,-58.2C-23.7,-62,-11.8,-62.5,1.7,-65.4C15.2,-68.3,30.4,-73.6,39.6,-68.4Z" transform="translate(100 100)" />
</svg>
