<?xml version="1.0" standalone="no"?>
<svg viewBox="0 0 200 200" xmlns="http://www.w3.org/2000/svg">
  <path fill="#E1B511" d="M35.5,-50.9C50,-45.8,68.7,-42.9,71.6,-33.6C74.6,-24.2,61.8,-8.6,58.5,7.8C55.3,24.3,61.5,41.5,57,53C52.6,64.5,37.5,70.3,22.6,72.8C7.7,75.3,-6.9,74.4,-18.9,68.8C-30.8,63.2,-39.9,52.9,-50.2,42.6C-60.4,32.3,-71.7,22.1,-72.1,11.1C-72.5,0.1,-61.9,-11.7,-55.6,-25.3C-49.2,-38.9,-47,-54.3,-38.4,-62.1C-29.9,-70,-14.9,-70.2,-2.2,-66.7C10.5,-63.2,20.9,-56,35.5,-50.9Z" transform="translate(100 100)" />
</svg>
