<?xml version="1.0" standalone="no"?>
<svg viewBox="0 0 200 200" xmlns="http://www.w3.org/2000/svg">
  <path fill="#E1B511" d="M17.7,-33.7C24.9,-22.9,34,-21.3,46.4,-15.1C58.7,-8.8,74.2,2,71.7,9.4C69.3,16.8,48.8,20.7,37.6,31.4C26.4,42.1,24.6,59.7,15.2,71.5C5.8,83.2,-11,89.1,-24.4,84.5C-37.7,79.9,-47.6,64.8,-57.5,51.1C-67.4,37.4,-77.4,25,-82.7,9.9C-87.9,-5.1,-88.3,-22.8,-79.9,-34.5C-71.5,-46.2,-54.2,-51.8,-39.4,-59.2C-24.6,-66.6,-12.3,-75.7,-3.5,-70.2C5.2,-64.7,10.5,-44.6,17.7,-33.7Z" transform="translate(100 100)" />
</svg>
